<svg width="28" height="29" viewBox="0 0 28 29" fill="none" xmlns="http://www.w3.org/2000/svg">
<path opacity="0.5" d="M27.9935 0.189161L21.1426 25.7838C21.1078 25.8999 20.9685 25.9348 20.8872 25.8535L16.3006 21.2643L19.7376 8.43799C19.7725 8.3218 19.668 8.21724 19.5518 8.2521L6.73265 11.691L2.1693 7.12514C2.08802 7.04382 2.12285 6.9044 2.23897 6.86955L27.8077 0.00327179C27.9238 -0.0199643 28.0283 0.0845982 27.9935 0.189161Z" fill="#00B37E"/>
<path opacity="0.5" d="M16.3005 21.2647L14.5356 27.887C14.5007 28.0032 14.3614 28.038 14.2801 27.9567L0.0442979 13.7246C-0.0369832 13.6432 -0.00214863 13.5038 0.113967 13.469L6.73258 11.6914L16.3005 21.2647Z" fill="#00B37E"/>
<path d="M19.7355 8.43879L16.2984 21.2651L6.73047 11.6919L19.5497 8.2529C19.6658 8.21805 19.7703 8.32261 19.7355 8.43879Z" fill="#00B37E"/>
</svg>
